<svg width="400" height="400" viewBox="0 0 400 400" fill="none" xmlns="http://www.w3.org/2000/svg">
<rect x="10" y="10" width="380" height="380" rx="70" fill="white" stroke="black" stroke-width="20"/>
<path d="M122 37L172 87L122 137L72 87L122 37Z" fill="black"/>
<path d="M122 262L165.301 287V337L122 362L78.6987 337V287L122 262Z" fill="black"/>
<path d="M278 262L317.092 280.826L326.746 323.126L299.694 357.048H256.306L229.254 323.126L238.908 280.826L278 262Z" fill="black"/>
<path d="M328 87L303 130.301L253 130.301L228 87L253 43.6987L303 43.6987L328 87Z" fill="black"/>
<path d="M122 158L169.553 192.549L151.389 248.451H92.6107L74.4472 192.549L122 158Z" fill="black"/>
<rect x="239" y="169" width="78" height="78" fill="black"/>
</svg>
