<?xml version="1.0" standalone="no"?>
<!DOCTYPE svg PUBLIC "-//W3C//DTD SVG 20010904//EN"
 "http://www.w3.org/TR/2001/REC-SVG-20010904/DTD/svg10.dtd">
<svg version="1.0" xmlns="http://www.w3.org/2000/svg"
 width="300.000000pt" height="300.000000pt" viewBox="0 0 300.000000 300.000000"
 preserveAspectRatio="xMidYMid meet">

<g transform="translate(0.000000,300.000000) scale(0.100000,-0.100000)"
fill="#010056" stroke="none">
<path d="M1664 2989 c-75 -12 -206 -55 -317 -104 l-98 -44 -97 25 c-124 32
-272 44 -272 22 0 -20 44 -147 64 -187 l17 -33 -43 -36 c-56 -47 -150 -145
-188 -198 l-30 -42 158 54 c86 29 164 54 173 54 9 0 37 -35 68 -85 29 -47 72
-110 96 -140 l44 -53 -19 -124 c-11 -68 -23 -171 -26 -229 l-7 -106 -56 -18
c-68 -21 -207 -84 -273 -125 -42 -26 -58 -30 -121 -30 -39 0 -119 -7 -176 -15
-57 -8 -106 -13 -108 -11 -3 2 -14 73 -25 158 -18 135 -20 170 -10 298 l10
145 69 63 c37 35 96 85 131 110 l64 47 -106 3 c-58 1 -106 6 -106 10 0 20 42
176 59 223 11 29 18 55 16 57 -10 10 -89 -55 -156 -126 -168 -181 -325 -493
-345 -689 l-7 -67 60 69 c63 74 138 145 151 145 4 0 38 -38 76 -85 l67 -85
-19 -28 c-32 -44 -88 -162 -111 -233 l-21 -65 -71 -17 c-70 -17 -179 -64 -179
-77 0 -11 82 -85 129 -116 38 -25 42 -31 37 -58 -19 -100 -36 -239 -36 -289 0
-57 29 -137 49 -137 5 0 21 21 37 48 15 26 54 90 87 142 34 52 62 96 63 98 1
1 58 -32 127 -74 l125 -76 67 -146 c90 -198 90 -194 24 -227 -29 -15 -105 -44
-168 -65 l-116 -39 58 -26 c87 -38 240 -75 342 -82 l90 -6 45 -71 c70 -110
187 -246 227 -263 19 -8 37 -13 38 -11 2 2 -2 72 -8 156 -9 122 -8 155 2 161
7 5 76 11 154 14 l143 6 92 -88 c63 -60 91 -93 87 -103 -7 -18 -67 -68 -144
-120 l-54 -37 28 -7 c75 -19 292 15 462 71 174 58 364 167 493 285 67 61 67
61 -139 25 -79 -14 -158 -25 -175 -25 l-31 0 -2 149 -2 149 45 7 c62 9 166 46
251 89 l73 36 97 -49 c125 -62 139 -66 147 -45 3 9 1 77 -5 151 l-11 135 49
52 c72 74 116 133 157 206 35 65 69 150 60 150 -3 0 -22 -9 -42 -19 -30 -15
-235 -91 -246 -91 -2 0 -6 49 -10 110 -3 60 -13 148 -21 196 -9 48 -18 150
-21 228 -3 77 -8 167 -13 199 l-8 57 29 0 c16 0 72 -5 123 -11 52 -6 99 -9
105 -7 15 5 -56 96 -134 171 -34 33 -96 82 -139 110 -55 36 -79 58 -83 76 -24
114 -113 331 -135 331 -4 0 -10 -12 -14 -27 -12 -48 -66 -182 -76 -188 -5 -3
-48 8 -96 24 -90 31 -238 61 -300 61 -19 0 -73 19 -126 44 -51 24 -127 57
-169 72 -43 16 -78 32 -78 35 0 4 63 59 141 123 l141 116 -53 -1 c-30 -1 -77
-5 -105 -10z m303 -463 c48 -41 121 -108 162 -149 l74 -75 -45 -64 c-25 -35
-75 -100 -112 -146 -36 -45 -66 -84 -66 -85 0 -2 55 7 123 19 67 13 159 27
204 31 l82 9 125 -191 c69 -106 126 -199 126 -208 0 -25 -54 -157 -128 -311
l-66 -138 -218 3 -217 4 -36 35 c-40 38 -198 216 -258 291 l-37 46 146 199
c80 109 141 200 136 202 -10 3 -173 -39 -371 -97 l-104 -30 -18 22 c-11 12
-62 86 -115 165 -90 134 -96 146 -89 180 11 61 53 180 96 268 l39 83 133 4
c72 1 180 4 239 5 l107 2 88 -74z m-976 -1017 c101 -39 187 -73 190 -77 4 -4
14 -65 23 -137 9 -71 28 -178 43 -238 14 -59 24 -109 22 -111 -40 -35 -302
-236 -308 -236 -12 0 -237 169 -294 221 -46 41 -52 54 -102 194 l-54 150 26
40 c35 53 112 134 196 206 37 33 69 59 71 59 2 0 86 -32 187 -71z m649 -209
c57 -16 154 -39 215 -51 60 -11 119 -23 130 -25 11 -3 44 -34 74 -70 30 -36
93 -98 142 -138 l87 -74 -70 -123 c-81 -144 -149 -240 -261 -374 l-80 -95
-106 1 c-219 1 -230 4 -394 102 -131 79 -147 91 -147 115 0 15 12 108 26 207
l26 180 71 120 c100 169 157 255 170 255 7 0 59 -13 117 -30z"/>
</g>
</svg>
